<?xml version="1.0" standalone="no"?>
<!DOCTYPE svg PUBLIC "-//W3C//DTD SVG 20010904//EN"
 "http://www.w3.org/TR/2001/REC-SVG-20010904/DTD/svg10.dtd">
<svg version="1.0" xmlns="http://www.w3.org/2000/svg"
 width="243.000000pt" height="243.000000pt" viewBox="0 0 243.000000 243.000000"
 preserveAspectRatio="xMidYMid meet">
<metadata>
Created by potrace 1.14, written by Peter Selinger 2001-2017
</metadata>
<g transform="translate(0.000000,243.000000) scale(0.100000,-0.100000)"
fill="#000000" stroke="none">
<path d="M708 2375 c-10 -7 -13 -54 -12 -181 1 -95 3 -178 6 -186 4 -8 22 -15
45 -16 l39 -3 3 48 c2 26 4 62 4 79 0 30 2 31 46 31 68 2 91 9 120 40 46 49
37 133 -18 170 -30 21 -212 35 -233 18z m179 -87 c7 -6 10 -14 7 -19 -3 -5 0
-9 7 -9 8 0 6 -7 -5 -19 -11 -12 -29 -18 -58 -17 -40 1 -43 3 -45 31 -1 17 4
35 12 41 16 12 62 7 82 -8z"/>
<path d="M1035 2368 c-2 -7 -3 -94 -2 -193 l2 -180 70 -2 c39 -2 91 0 116 3
41 5 48 9 52 32 7 36 -14 48 -75 46 -66 -3 -76 2 -74 37 1 32 12 38 66 35 48
-3 68 9 68 39 0 33 -12 39 -77 40 -53 0 -55 1 -56 28 -3 40 15 53 66 50 72 -5
86 2 85 39 l-1 33 -118 3 c-88 2 -118 -1 -122 -10z"/>
<path d="M1345 2374 c-8 -3 -11 -305 -3 -361 1 -13 71 -13 84 0 5 4 8 35 8 70
l1 62 60 2 c68 3 101 22 126 70 22 44 13 88 -28 128 -33 32 -34 33 -136 33
-56 1 -106 -1 -112 -4z m185 -88 c18 -13 24 -36 9 -36 -5 0 -8 -4 -5 -9 8 -12
-11 -17 -59 -17 -39 1 -40 2 -40 36 0 28 4 35 25 40 27 7 46 3 70 -14z"/>
<path d="M1675 2370 c-8 -13 -8 -246 -1 -259 4 -5 0 -12 -6 -14 -10 -4 -10 -8
1 -15 8 -6 9 -12 3 -16 -13 -8 2 -72 16 -68 7 1 12 -2 12 -6 0 -10 30 -9 47 1
6 4 15 3 18 -3 5 -8 11 -7 21 1 11 9 18 9 26 1 8 -8 17 -8 30 -1 12 6 18 6 18
-1 0 -6 7 -6 19 2 14 8 18 20 15 41 -2 16 -6 32 -8 35 -3 3 -30 5 -61 4 -30 0
-56 3 -56 7 -1 3 -3 65 -5 136 -1 72 -3 138 -3 148 -1 13 -10 17 -40 17 -22 0
-43 -5 -46 -10z"/>
<path d="M1300 1839 c0 -4 -8 -6 -17 -4 -25 3 -178 -52 -224 -81 -26 -16 -36
-29 -33 -39 4 -8 10 -15 15 -15 10 0 82 33 89 40 3 3 25 12 50 20 25 7 50 17
56 22 6 4 13 5 17 2 3 -3 14 -1 25 5 13 7 22 7 29 0 8 -8 13 -7 17 0 10 15
103 14 108 -1 3 -7 4 -23 3 -35 -1 -13 1 -23 5 -23 8 0 7 -31 -2 -46 -4 -5 -3
-16 2 -24 4 -7 4 -24 0 -36 -5 -13 -5 -26 -1 -28 10 -7 7 -58 -4 -76 -5 -8 -4
-11 3 -6 8 4 9 -6 6 -35 -6 -46 -29 -98 -44 -100 -6 -1 -14 -3 -20 -4 -5 -1
-19 -3 -30 -4 -11 0 -34 -14 -51 -29 -26 -23 -32 -36 -32 -71 0 -24 6 -47 12
-51 7 -4 12 -10 12 -14 -3 -20 0 -26 9 -21 6 3 10 1 10 -5 0 -6 5 -8 10 -5 6
3 10 1 10 -5 0 -19 92 -9 111 12 9 10 19 14 23 10 4 -4 6 -2 5 3 -2 6 2 20 9
32 7 13 11 33 8 45 -7 39 -18 68 -25 68 -4 0 -7 13 -7 29 0 17 2 28 5 27 12
-8 29 21 21 34 -5 8 -5 21 -1 29 9 21 7 144 -4 161 -5 7 -4 11 1 7 5 -3 9 8 9
23 1 16 -3 26 -8 23 -5 -3 -4 5 3 17 8 15 9 25 1 33 -7 7 -7 16 0 29 7 12 6
18 -1 18 -7 0 -6 5 2 14 7 8 17 11 23 8 5 -3 25 -7 43 -9 18 -1 41 -7 52 -13
11 -6 25 -8 30 -5 6 3 10 1 10 -5 0 -6 3 -9 8 -7 4 3 13 -1 19 -9 8 -8 9 -15
3 -19 -6 -4 -8 -11 -4 -16 10 -17 10 -169 -1 -169 -7 0 -7 -3 0 -8 6 -4 10
-29 10 -57 0 -27 -4 -53 -10 -57 -7 -5 -7 -8 0 -8 6 0 10 -12 11 -27 0 -37 6
-54 22 -72 11 -11 10 -17 -8 -33 -11 -10 -18 -23 -15 -29 4 -5 2 -9 -3 -9 -26
0 7 -113 37 -126 32 -13 91 -21 91 -12 0 5 5 6 10 3 6 -3 10 -1 10 6 0 7 3 10
6 6 9 -9 44 26 44 44 0 10 6 20 13 22 9 4 9 8 -2 15 -10 7 -10 11 -1 14 10 3
9 7 -2 19 -8 8 -13 19 -11 25 2 6 -3 17 -12 24 -8 7 -15 9 -15 4 0 -5 -4 -3
-9 5 -5 8 -18 16 -28 17 -68 10 -94 37 -98 104 -1 28 2 50 7 50 5 0 6 5 2 11
-5 9 -7 204 -2 246 2 14 28 5 28 -10 0 -6 2 -8 6 -5 4 5 55 -36 88 -71 43 -46
58 -66 87 -122 19 -35 39 -67 44 -71 6 -4 6 -8 1 -8 -5 0 -4 -6 2 -12 10 -13
27 -77 24 -90 -1 -5 3 -8 8 -8 12 0 9 -22 -5 -32 -6 -5 -5 -8 2 -8 8 0 11 -11
9 -30 -2 -16 0 -30 4 -30 4 0 6 -13 5 -30 -1 -17 2 -30 9 -30 6 0 4 -5 -4 -10
-13 -9 -13 -10 0 -10 13 0 13 -1 0 -10 -11 -7 -11 -10 -2 -10 8 0 10 -5 6 -12
-12 -18 -12 -48 -1 -48 5 0 7 -9 4 -20 -3 -12 0 -20 7 -20 6 0 13 -10 13 -22
1 -13 7 -24 12 -26 5 -2 8 -9 5 -17 -3 -7 0 -16 5 -20 6 -3 8 -11 5 -17 -4 -7
-2 -8 4 -4 8 5 12 -3 12 -26 0 -25 3 -29 10 -18 8 13 10 12 10 -3 0 -10 13
-46 29 -80 36 -79 42 -99 33 -114 -8 -13 -72 -18 -116 -8 -16 3 -34 7 -40 8
-6 1 -11 -9 -12 -23 0 -14 -3 -31 -8 -38 -4 -6 -4 -12 1 -12 4 0 8 -61 8 -136
l0 -136 -30 -23 c-16 -13 -47 -26 -69 -29 -21 -4 -42 -9 -47 -12 -5 -3 -9 1
-9 8 0 8 -3 9 -8 3 -8 -11 -72 -15 -72 -4 0 10 -64 6 -71 -5 -4 -5 -6 -49 -4
-97 2 -50 -1 -92 -6 -95 -14 -8 -59 -12 -59 -5 0 3 -19 6 -42 6 l-43 0 0 98
c0 53 -4 97 -8 97 -5 0 -5 6 0 13 4 6 6 20 5 30 -4 22 17 49 31 40 6 -3 7 -1
3 5 -4 7 -4 12 1 12 20 1 45 31 50 62 3 18 5 35 6 38 1 3 -6 19 -15 35 -32 60
-104 77 -164 39 -22 -13 -35 -24 -30 -24 5 0 3 -7 -5 -16 -15 -19 -20 -84 -6
-84 6 0 8 -3 4 -6 -8 -8 34 -54 49 -54 24 0 29 -25 29 -153 1 -140 3 -136 -65
-136 -19 0 -44 -2 -55 -4 -11 -3 -24 -2 -30 2 -5 3 -14 6 -20 6 -6 0 -10 33
-10 77 0 46 -5 82 -12 89 -9 9 -9 18 3 40 16 32 25 89 14 89 -4 0 -10 9 -13
19 -10 41 -65 59 -151 50 -21 -3 -61 -63 -62 -94 0 -24 16 -65 33 -82 17 -19
65 -36 95 -35 15 0 32 -6 38 -13 9 -11 14 -68 11 -126 -1 -14 -19 -16 -143
-15 l-143 1 -1 178 c0 179 -8 217 -36 189 -8 -8 -11 -70 -9 -209 1 -108 4
-199 7 -202 8 -8 779 -7 790 1 8 6 10 40 7 101 l-4 92 78 -1 c43 0 83 2 88 5
6 3 12 6 15 6 37 6 69 19 74 31 3 9 10 13 14 10 5 -3 16 8 26 25 15 25 17 51
15 172 l-3 142 59 1 c67 1 108 11 100 25 -4 5 -2 9 3 9 16 0 20 48 7 74 -7 14
-11 27 -7 30 3 3 0 6 -6 6 -7 0 -12 8 -12 18 0 9 -7 26 -15 36 -8 10 -12 22
-10 26 3 5 -2 11 -11 14 -9 4 -14 13 -10 21 3 8 1 15 -4 15 -6 0 -10 6 -10 14
0 8 -6 21 -12 28 -7 7 -14 20 -16 28 -2 8 -10 29 -18 46 -8 17 -16 41 -17 53
-1 11 -5 21 -10 21 -6 0 -6 5 0 13 11 14 11 27 0 44 -4 6 -3 14 3 18 6 4 8 10
5 15 -3 5 -8 39 -10 76 -2 36 -8 71 -13 76 -6 6 -8 17 -5 24 3 8 1 14 -4 14
-5 0 -10 7 -11 15 -1 8 -3 22 -4 30 -1 8 -5 15 -10 15 -5 0 -6 5 -3 10 3 6 1
10 -6 10 -7 0 -9 3 -6 6 8 9 -43 104 -55 104 -5 0 -6 4 -3 10 7 11 -14 37 -90
111 -67 66 -186 135 -270 155 -5 2 -21 6 -35 9 -37 9 -240 13 -240 4z m107
-515 c13 -4 20 -10 17 -15 -3 -5 1 -9 9 -9 8 0 13 -11 13 -30 0 -16 -4 -30 -8
-30 -5 0 -7 -4 -4 -8 8 -14 -35 -31 -71 -29 -17 1 -29 5 -27 9 3 5 0 8 -7 8
-7 0 -10 3 -6 6 3 4 0 13 -8 21 -18 17 -19 33 -4 33 5 0 8 4 4 9 -6 11 33 41
55 41 8 0 25 -3 37 -6z m396 -57 c4 3 7 1 7 -6 0 -7 5 -9 12 -5 6 4 8 3 4 -4
-3 -6 2 -15 11 -21 14 -8 15 -10 3 -11 -12 0 -12 -2 -2 -9 16 -9 18 -21 5 -30
-4 -3 -13 -15 -18 -25 -11 -19 -72 -29 -82 -13 -2 4 -9 4 -15 1 -7 -5 -9 -1
-5 9 4 12 1 17 -10 17 -9 0 -13 3 -10 6 3 4 2 16 -4 27 -8 14 -8 18 0 13 6 -4
11 -2 11 3 0 6 1 14 2 19 2 11 32 31 40 26 4 -2 10 0 13 6 5 8 11 8 19 1 7 -6
16 -8 19 -4z m-228 -776 c18 -30 15 -52 -11 -78 -20 -20 -32 -24 -55 -19 -55
11 -64 30 -49 113 0 1 15 6 33 11 35 10 66 0 82 -27z m-318 -104 c7 -6 14 -29
17 -51 3 -21 2 -36 0 -33 -3 3 -14 -3 -24 -13 -10 -10 -27 -17 -37 -15 -10 2
-25 4 -34 4 -19 1 -37 37 -34 68 3 50 76 76 112 40z"/>
<path d="M658 1594 c-2 -2 -18 -4 -35 -6 -18 -1 -29 -6 -27 -10 3 -4 -1 -8 -8
-8 -9 0 -15 -14 -17 -41 -2 -46 -19 -79 -39 -79 -8 0 -25 9 -39 20 -14 11 -22
20 -17 20 5 0 -2 6 -16 14 -22 11 -30 10 -62 -6 -21 -10 -38 -23 -38 -29 0 -6
-4 -7 -10 -4 -5 3 -10 3 -10 -2 0 -4 -15 -25 -34 -45 -30 -33 -36 -54 -27 -98
1 -3 11 -16 24 -30 20 -23 24 -36 17 -57 -1 -5 -2 -11 -1 -15 1 -8 -8 -10 -66
-12 -57 -2 -68 -24 -68 -135 0 -68 4 -103 14 -114 7 -9 17 -15 21 -12 5 3 11
2 14 -3 3 -5 19 -7 35 -6 47 3 66 -43 32 -80 -37 -42 -43 -63 -25 -97 9 -18
25 -41 35 -52 10 -12 19 -25 19 -29 0 -5 4 -7 8 -4 5 3 15 -6 22 -19 7 -14 22
-27 32 -31 29 -9 76 5 83 25 4 12 15 18 33 17 35 -2 51 -12 50 -34 -1 -18 7
-61 17 -92 4 -11 12 -17 21 -13 7 3 14 1 14 -3 0 -5 36 -9 80 -9 44 -1 80 3
80 8 0 5 7 7 15 3 10 -3 15 1 15 14 0 10 4 21 9 24 4 3 6 17 3 31 -5 27 20 65
43 65 6 0 22 -12 36 -26 53 -58 85 -52 164 32 57 61 61 67 57 89 -4 20 -39 75
-54 86 -5 3 -6 13 -2 22 7 19 54 52 54 38 0 -11 58 3 72 17 5 5 11 19 14 33 9
41 10 149 1 149 -5 0 -7 6 -5 12 7 20 -28 50 -62 54 -70 8 -89 48 -42 91 20
19 26 33 26 63 -1 33 -10 47 -66 104 -36 36 -71 66 -79 66 -14 0 -53 -23 -76
-46 -14 -14 -63 -6 -64 10 -7 113 -16 128 -86 132 -26 1 -48 3 -48 4 0 4 -34
8 -37 4z m47 -64 c17 -6 24 -6 20 0 -4 6 2 7 17 1 19 -7 24 -17 26 -56 3 -38
9 -54 30 -72 39 -33 86 -40 118 -17 15 11 33 24 41 29 11 7 19 4 33 -12 10
-13 24 -23 31 -23 7 0 9 -3 6 -6 -4 -4 2 -15 13 -24 23 -20 18 -43 -17 -78
-13 -13 -23 -32 -23 -43 0 -23 37 -109 48 -110 14 -1 57 -9 78 -14 18 -4 20
-11 18 -67 -1 -35 -2 -68 -3 -74 -1 -7 -16 -10 -42 -7 -49 6 -72 -11 -92 -71
-14 -42 -8 -86 13 -86 5 0 10 -7 10 -15 0 -8 5 -15 10 -15 19 0 10 -29 -16
-49 -15 -12 -23 -21 -19 -21 4 0 -4 -9 -18 -20 -32 -25 -44 -25 -59 0 -7 11
-19 20 -26 20 -7 0 -10 5 -6 11 8 14 -62 7 -97 -10 -32 -16 -46 -45 -42 -88 4
-42 -7 -45 -127 -35 -17 2 -19 9 -19 51 1 34 -4 55 -15 66 -9 9 -16 13 -16 8
0 -4 -5 0 -11 9 -5 10 -16 15 -24 12 -8 -4 -15 -1 -15 5 0 16 -40 9 -70 -12
-13 -9 -20 -17 -15 -17 11 0 -16 -20 -27 -20 -15 0 -88 85 -88 102 0 11 12 30
26 43 31 29 33 49 10 108 -18 48 -37 61 -88 60 -22 0 -28 5 -35 31 -4 17 -6
40 -5 51 2 11 3 30 3 42 -1 16 7 25 24 29 13 3 28 4 32 1 14 -9 73 24 66 36
-3 5 0 15 8 21 25 19 18 87 -12 116 -15 14 -27 29 -28 33 -1 4 19 28 44 53 40
38 49 43 67 33 11 -6 23 -20 25 -30 3 -10 12 -19 19 -20 39 -3 52 -2 86 10 40
13 52 33 52 91 1 28 6 35 26 41 14 4 26 7 27 8 1 1 13 -3 28 -9z"/>
<path d="M680 1311 c0 -6 -7 -8 -15 -5 -18 7 -81 -13 -108 -35 -75 -60 -109
-125 -107 -207 1 -78 2 -84 12 -84 5 0 7 -4 4 -9 -15 -23 95 -148 136 -155 7
-1 19 -5 26 -10 7 -4 37 -7 65 -7 76 2 87 3 87 13 0 5 5 6 10 3 6 -3 10 -1 10
4 0 6 7 11 15 11 8 0 15 5 15 12 0 6 3 9 6 5 6 -6 38 29 66 73 36 59 40 177 8
236 -11 19 -17 34 -14 34 3 0 -12 18 -34 39 -45 45 -84 67 -129 74 -17 3 -37
8 -42 12 -6 3 -11 2 -11 -4z m56 -57 c24 -3 80 -38 101 -64 108 -132 30 -338
-131 -345 -28 -1 -57 2 -63 8 -7 5 -13 7 -13 3 0 -4 -12 1 -27 11 -36 23 -80
63 -70 63 5 0 1 7 -7 16 -9 8 -16 24 -16 35 0 10 -4 19 -9 19 -14 0 -6 110 10
145 19 41 79 97 96 91 8 -3 11 -1 8 4 -5 9 6 13 60 23 11 2 24 1 30 -2 5 -2
19 -6 31 -7z"/>
<path d="M642 1184 c-37 -15 -64 -39 -55 -48 3 -3 -2 -8 -11 -12 -9 -3 -13
-10 -10 -15 3 -5 0 -9 -7 -9 -8 0 -8 -4 1 -15 7 -9 8 -15 2 -15 -6 0 -9 -8 -7
-17 2 -10 4 -18 5 -18 1 0 4 -11 6 -25 2 -13 9 -27 15 -31 6 -3 10 -9 10 -13
-1 -3 -1 -10 -1 -14 0 -10 60 -35 83 -35 9 0 17 -4 17 -9 0 -5 8 -4 19 1 10 6
21 7 25 4 3 -3 6 -1 6 6 0 7 5 9 10 6 6 -3 13 1 16 9 3 9 9 14 13 11 4 -2 16
10 26 27 13 22 14 29 4 24 -9 -5 -9 -3 1 6 23 19 13 128 -11 128 -5 0 -9 7 -9
15 0 8 -5 15 -12 15 -6 0 -19 7 -28 15 -24 22 -70 25 -108 9z m105 -35 c23
-16 71 -95 51 -83 -10 5 -10 4 -2 -5 18 -19 -13 -89 -46 -106 -35 -18 -80 -26
-80 -15 0 5 -7 6 -17 3 -11 -4 -14 -3 -9 5 4 7 1 12 -8 12 -9 0 -16 5 -16 11
0 5 -6 7 -12 3 -7 -4 -10 -4 -6 1 10 10 -19 65 -34 65 -7 0 -3 7 8 15 10 8 16
15 11 15 -4 0 -1 14 8 30 9 17 12 30 8 30 -4 0 8 9 27 19 39 22 86 22 117 0z"/>
<path d="M150 829 c0 -5 5 -7 10 -4 6 3 10 8 10 11 0 2 -4 4 -10 4 -5 0 -10
-5 -10 -11z"/>
</g>
</svg>
